<?xml version="1.0" encoding="UTF-8" standalone="no"?>
<!DOCTYPE svg PUBLIC "-//W3C//DTD SVG 1.1//EN"
 "http://www.w3.org/Graphics/SVG/1.1/DTD/svg11.dtd">
<!-- Generated by graphviz version 14.1.5 (20260411.2331)
 -->
<!-- Title: calyxos_graph Pages: 1 -->
<svg width="386pt" height="436pt"
 viewBox="0.00 0.00 386.00 436.00" xmlns="http://www.w3.org/2000/svg" xmlns:xlink="http://www.w3.org/1999/xlink">
<g id="graph0" class="graph" transform="scale(1 1) rotate(0) translate(28.8 407.3)">
<title>calyxos_graph</title>
<polygon fill="#fafafa" stroke="none" points="-28.8,28.8 -28.8,-407.3 357.55,-407.3 357.55,28.8 -28.8,28.8"/>
<text xml:space="preserve" text-anchor="middle" x="164.38" y="-359.3" font-family="Helvetica,sans-Serif" font-size="16.00">Portfolio computation graph</text>
<!-- n_net_value_281949768489412648962353822266799178366 -->
<g id="node1" class="node">
<title>n_net_value_281949768489412648962353822266799178366</title>
<polygon fill="#d1ecf1" stroke="#888888" points="118.12,-309.5 118.12,-353.5 198.62,-353.5 198.62,-309.5 118.12,-309.5"/>
<text xml:space="preserve" text-anchor="middle" x="158.38" y="-339.05" font-family="Helvetica,sans-Serif" font-size="11.00" fill="#0c5460">net_value</text>
<text xml:space="preserve" text-anchor="middle" x="158.38" y="-327.05" font-family="Helvetica,sans-Serif" font-size="11.00" fill="#0c5460">status: valid</text>
<text xml:space="preserve" text-anchor="middle" x="158.38" y="-315.05" font-family="Helvetica,sans-Serif" font-size="11.00" fill="#0c5460">value: 4250.0</text>
</g>
<!-- n_market_value_281949768489412648962353822266799178366 -->
<g id="node2" class="node">
<title>n_market_value_281949768489412648962353822266799178366</title>
<polygon fill="#d1ecf1" stroke="#888888" points="118.12,-103.5 118.12,-147.5 198.62,-147.5 198.62,-103.5 118.12,-103.5"/>
<text xml:space="preserve" text-anchor="middle" x="158.38" y="-133.05" font-family="Helvetica,sans-Serif" font-size="11.00" fill="#0c5460">market_value</text>
<text xml:space="preserve" text-anchor="middle" x="158.38" y="-121.05" font-family="Helvetica,sans-Serif" font-size="11.00" fill="#0c5460">status: valid</text>
<text xml:space="preserve" text-anchor="middle" x="158.38" y="-109.05" font-family="Helvetica,sans-Serif" font-size="11.00" fill="#0c5460">value: 5000.0</text>
</g>
<!-- n_market_value_281949768489412648962353822266799178366&#45;&gt;n_net_value_281949768489412648962353822266799178366 -->
<g id="edge1" class="edge">
<title>n_market_value_281949768489412648962353822266799178366&#45;&gt;n_net_value_281949768489412648962353822266799178366</title>
<path fill="none" stroke="#555555" d="M155.66,-147.71C153.75,-163.7 151.37,-186.19 150.38,-206 149.37,-225.97 149.37,-231.03 150.38,-251 151.21,-267.56 153.01,-285.99 154.69,-300.93"/>
<polygon fill="#555555" stroke="#555555" points="152.24,-301.11 155.48,-307.78 157.11,-300.55 152.24,-301.11"/>
</g>
<!-- n_tax_estimate_281949768489412648962353822266799178366 -->
<g id="node5" class="node">
<title>n_tax_estimate_281949768489412648962353822266799178366</title>
<polygon fill="#d1ecf1" stroke="#888888" points="172,-206.5 172,-250.5 248.75,-250.5 248.75,-206.5 172,-206.5"/>
<text xml:space="preserve" text-anchor="middle" x="210.38" y="-236.05" font-family="Helvetica,sans-Serif" font-size="11.00" fill="#0c5460">tax_estimate</text>
<text xml:space="preserve" text-anchor="middle" x="210.38" y="-224.05" font-family="Helvetica,sans-Serif" font-size="11.00" fill="#0c5460">status: valid</text>
<text xml:space="preserve" text-anchor="middle" x="210.38" y="-212.05" font-family="Helvetica,sans-Serif" font-size="11.00" fill="#0c5460">value: 750.0</text>
</g>
<!-- n_market_value_281949768489412648962353822266799178366&#45;&gt;n_tax_estimate_281949768489412648962353822266799178366 -->
<g id="edge5" class="edge">
<title>n_market_value_281949768489412648962353822266799178366&#45;&gt;n_tax_estimate_281949768489412648962353822266799178366</title>
<path fill="none" stroke="#555555" d="M169.4,-147.92C177.06,-162.78 187.33,-182.75 195.68,-198.96"/>
<polygon fill="#555555" stroke="#555555" points="193.29,-199.66 198.67,-204.77 197.64,-197.42 193.29,-199.66"/>
</g>
<!-- n_num_shares_281949768489412648962353822266799178366 -->
<g id="node3" class="node">
<title>n_num_shares_281949768489412648962353822266799178366</title>
<polygon fill="#d4edda" stroke="#888888" points="0,-0.5 0,-44.5 130.75,-44.5 130.75,-0.5 0,-0.5"/>
<text xml:space="preserve" text-anchor="middle" x="65.38" y="-30.05" font-family="Helvetica,sans-Serif" font-size="11.00" fill="#155724">num_shares [STORED]</text>
<text xml:space="preserve" text-anchor="middle" x="65.38" y="-18.05" font-family="Helvetica,sans-Serif" font-size="11.00" fill="#155724">status: valid</text>
<text xml:space="preserve" text-anchor="middle" x="65.38" y="-6.05" font-family="Helvetica,sans-Serif" font-size="11.00" fill="#155724">value: 100</text>
</g>
<!-- n_num_shares_281949768489412648962353822266799178366&#45;&gt;n_market_value_281949768489412648962353822266799178366 -->
<g id="edge3" class="edge">
<title>n_num_shares_281949768489412648962353822266799178366&#45;&gt;n_market_value_281949768489412648962353822266799178366</title>
<path fill="none" stroke="#555555" d="M85.1,-44.92C99.15,-60.18 118.16,-80.83 133.3,-97.26"/>
<polygon fill="#555555" stroke="#555555" points="131.11,-98.51 137.66,-102 134.72,-95.19 131.11,-98.51"/>
</g>
<!-- n_price_per_share_281949768489412648962353822266799178366 -->
<g id="node4" class="node">
<title>n_price_per_share_281949768489412648962353822266799178366</title>
<polygon fill="#d4edda" stroke="#888888" points="174,-0.5 174,-44.5 328.75,-44.5 328.75,-0.5 174,-0.5"/>
<text xml:space="preserve" text-anchor="middle" x="251.38" y="-30.05" font-family="Helvetica,sans-Serif" font-size="11.00" fill="#155724">price_per_share [CAN_SET]</text>
<text xml:space="preserve" text-anchor="middle" x="251.38" y="-18.05" font-family="Helvetica,sans-Serif" font-size="11.00" fill="#155724">status: valid</text>
<text xml:space="preserve" text-anchor="middle" x="251.38" y="-6.05" font-family="Helvetica,sans-Serif" font-size="11.00" fill="#155724">value: 50.0</text>
</g>
<!-- n_price_per_share_281949768489412648962353822266799178366&#45;&gt;n_market_value_281949768489412648962353822266799178366 -->
<g id="edge4" class="edge">
<title>n_price_per_share_281949768489412648962353822266799178366&#45;&gt;n_market_value_281949768489412648962353822266799178366</title>
<path fill="none" stroke="#555555" d="M231.65,-44.92C217.6,-60.18 198.59,-80.83 183.45,-97.26"/>
<polygon fill="#555555" stroke="#555555" points="182.03,-95.19 179.09,-102 185.64,-98.51 182.03,-95.19"/>
</g>
<!-- n_tax_estimate_281949768489412648962353822266799178366&#45;&gt;n_net_value_281949768489412648962353822266799178366 -->
<g id="edge2" class="edge">
<title>n_tax_estimate_281949768489412648962353822266799178366&#45;&gt;n_net_value_281949768489412648962353822266799178366</title>
<path fill="none" stroke="#555555" d="M199.35,-250.92C191.69,-265.78 181.42,-285.75 173.07,-301.96"/>
<polygon fill="#555555" stroke="#555555" points="171.11,-300.42 170.08,-307.77 175.46,-302.66 171.11,-300.42"/>
</g>
</g>
</svg>
